<svg width="58" height="40" viewBox="0 0 58 40" fill="none" xmlns="http://www.w3.org/2000/svg">
<g clip-path="url(#clip0_207:4061)">
<path d="M47.4329 31.0321C47.4329 39.8019 38.7996 39.5282 28.6016 39.5282C18.4026 39.5282 9.76929 39.8019 9.76929 31.0321C9.76929 19.648 18.4026 10.738 28.6016 10.738C38.7996 10.738 47.4329 19.648 47.4329 31.0321Z" fill="#C63431"/>
<path d="M55.3279 12.091C52.9283 15.9805 48.3731 17.5156 45.1504 15.517C41.9277 13.5162 41.2593 8.74264 43.6589 4.85202C45.6447 1.62761 49.1124 0.0224118 52.0762 0.701538C52.6908 0.842728 49.8098 6.71697 50.3622 7.06194C51.0467 7.48562 55.0914 2.40266 55.5417 3.04084C57.2063 5.41579 57.2171 9.02834 55.3279 12.091Z" fill="#C63431"/>
<path d="M40.2656 18.5061L45.7729 13.3607C46.1568 13.002 46.1781 12.3991 45.8206 12.0141C45.4632 11.6291 44.8623 11.6076 44.4784 11.9662L38.9711 17.1117C38.5873 17.4703 38.566 18.0731 38.9235 18.4582C39.2809 18.8432 39.8818 18.8646 40.2656 18.5061Z" fill="#C63431"/>
<path d="M1.87326 12.091C4.27386 15.9805 8.83232 17.5156 12.0518 15.517C15.2745 13.5162 15.9429 8.74264 13.5433 4.85202C11.5553 1.62761 8.08978 0.0224118 5.126 0.701538C4.51132 0.842728 7.39235 6.71697 6.83996 7.06194C6.15552 7.48562 2.11072 2.40266 1.65934 3.04084C-0.00191215 5.41579 -0.0148968 9.02834 1.87326 12.091Z" fill="#C63431"/>
<path d="M18.231 17.1117L12.7248 11.9663C12.3411 11.6076 11.7402 11.6291 11.3827 12.014C11.0251 12.399 11.0465 13.0019 11.4302 13.3605L16.9364 18.5061C17.3202 18.8646 17.9212 18.8432 18.2787 18.4583C18.6362 18.0732 18.6148 17.4704 18.231 17.1117Z" fill="#C63431"/>
<path d="M1.45094 28.5118C1.16077 28.4924 0.875987 28.377 0.65569 28.1657C0.177572 27.7076 0.182854 26.982 0.668564 26.54C4.2556 23.2866 9.98102 24.3732 12.1109 25.9342C12.6503 26.332 12.746 27.0543 12.3279 27.5523C11.9089 28.0461 11.1083 28.4849 10.57 28.087C9.29867 27.1534 4.99814 25.836 2.4009 28.1938C2.13868 28.432 1.79151 28.5387 1.45094 28.5118Z" fill="#C63431"/>
<path d="M2.34929 34.2091C2.14296 34.194 1.93774 34.1315 1.75497 34.0183C1.18442 33.6625 1.0286 32.9478 1.40042 32.4218C4.16856 28.5343 9.87251 28.3014 12.3022 29.4183C12.9137 29.7007 13.1726 30.3896 12.8749 30.9589C12.5784 31.5258 11.8154 32.1101 11.2029 31.8288C9.75213 31.1615 5.46668 30.8899 3.46365 33.7057C3.20891 34.0625 2.7791 34.2414 2.34929 34.2091Z" fill="#C63431"/>
<path d="M5.10881 38.6637C4.96697 38.6551 4.82293 38.6194 4.6844 38.5623C4.06323 38.2928 3.78593 37.6104 4.06752 37.0359C6.13613 32.784 11.6295 31.5756 14.2138 32.3237C14.8673 32.5146 15.2358 33.1602 15.038 33.764C14.8425 34.3687 14.1031 35.409 13.4519 35.2204C11.9056 34.7741 7.81675 34.9218 6.3177 38.0007C6.1007 38.4491 5.6096 38.7013 5.10881 38.6637Z" fill="#C63431"/>
<path d="M55.7502 28.5118C56.0403 28.4924 56.3262 28.377 56.5465 28.1657C57.0247 27.7076 57.0193 26.982 56.5347 26.54C52.9477 23.2866 47.2211 24.3732 45.0902 25.9342C44.5518 26.332 44.4562 27.0543 44.8763 27.5523C45.2933 28.0461 46.095 28.4849 46.6322 28.087C47.9035 27.1534 52.204 25.836 54.8014 28.1938C55.0636 28.432 55.4107 28.5387 55.7502 28.5118Z" fill="#C63431"/>
<path d="M54.8529 34.2091C55.0592 34.194 55.2645 34.1315 55.4483 34.0183C56.0168 33.6625 56.1736 32.9478 55.8019 32.4218C53.0336 28.5343 47.3307 28.3014 44.9011 29.4183C44.2875 29.7007 44.0307 30.3896 44.3251 30.9589C44.6238 31.5258 45.3879 32.1101 45.9983 31.8288C47.45 31.1615 51.7355 30.8899 53.7386 33.7057C53.9911 34.0625 54.4231 34.2414 54.8529 34.2091Z" fill="#C63431"/>
<path d="M52.0933 38.6637C52.2352 38.6551 52.3781 38.6194 52.5168 38.5623C53.1389 38.2928 53.4151 37.6104 53.1346 37.0359C51.066 32.784 45.5706 31.5756 42.9883 32.3237C42.336 32.5146 41.9664 33.1602 42.163 33.764C42.3608 34.3687 43.099 35.409 43.7524 35.2204C45.2944 34.7741 49.3854 34.9218 50.8845 38.0007C51.1016 38.4491 51.5927 38.7013 52.0933 38.6637Z" fill="#C63431"/>
<path d="M19.5337 7.5621L21.2004 14.3581C21.3006 14.7669 21.7121 15.0166 22.1196 14.9161C22.527 14.8155 22.776 14.4026 22.6758 13.9939L21.0091 7.19792C20.9089 6.78914 20.4973 6.53943 20.0899 6.63989C19.6825 6.74057 19.4335 7.15343 19.5337 7.5621Z" fill="#C63431"/>
<path d="M23.2856 5.58301C23.2856 7.4803 21.7543 9.0197 19.863 9.0197C17.9717 9.0197 16.4394 7.4803 16.4394 5.58301C16.4394 3.68671 17.9717 2.15161 19.863 2.15161C21.7543 2.15161 23.2856 3.68671 23.2856 5.58301Z" fill="#C63431"/>
<path d="M22.3647 5.58286C22.3647 6.96915 21.2439 8.0947 19.8631 8.0947C18.4822 8.0947 17.3615 6.96915 17.3615 5.58286C17.3615 4.19866 18.4822 3.07422 19.8631 3.07422C21.2439 3.07422 22.3647 4.19866 22.3647 5.58286Z" fill="#FFFFFE"/>
<path d="M22.0907 5.02018C22.0907 6.08093 21.2311 6.94231 20.1715 6.94231C19.113 6.94231 18.2533 6.08093 18.2533 5.02018C18.2533 3.95513 19.113 3.09375 20.1715 3.09375C21.2311 3.09375 22.0907 3.95513 22.0907 5.02018Z" fill="#1A1919"/>
<path d="M36.1931 7.19802L34.5274 13.994C34.4273 14.4028 34.6763 14.8156 35.0838 14.9161C35.4913 15.0166 35.9028 14.7668 36.003 14.358L37.6686 7.56198C37.7687 7.1532 37.5196 6.74045 37.1123 6.63988C36.7048 6.53943 36.2932 6.78924 36.1931 7.19802Z" fill="#C63431"/>
<path d="M33.9166 5.58301C33.9166 7.4803 35.4479 9.0197 37.3392 9.0197C39.2316 9.0197 40.7629 7.4803 40.7629 5.58301C40.7629 3.68671 39.2316 2.15161 37.3392 2.15161C35.4479 2.15161 33.9166 3.68671 33.9166 5.58301Z" fill="#C63431"/>
<path d="M34.8375 5.58286C34.8375 6.96915 35.9583 8.0947 37.3391 8.0947C38.72 8.0947 39.8409 6.96915 39.8409 5.58286C39.8409 4.19866 38.72 3.07422 37.3391 3.07422C35.9583 3.07422 34.8375 4.19866 34.8375 5.58286Z" fill="#FFFFFE"/>
<path d="M35.7433 5.02018C35.7433 6.08093 36.6031 6.94231 37.6604 6.94231C38.72 6.94231 39.5797 6.08093 39.5797 5.02018C39.5797 3.95513 38.72 3.09375 37.6604 3.09375C36.6031 3.09375 35.7433 3.95513 35.7433 5.02018Z" fill="#1A1919"/>
<path d="M24.876 14.1289C24.8528 14.2248 24.8465 14.3128 24.8461 14.4036C24.8465 14.5574 24.8673 14.7196 24.9049 14.8973C24.9715 15.207 25.0918 15.5613 25.2741 15.9292C25.5477 16.4795 25.961 17.0608 26.5535 17.5153C26.8495 17.7421 27.1906 17.9356 27.5761 18.0716C27.9613 18.2076 28.3906 18.2855 28.8574 18.2854C29.51 18.2852 30.1029 18.1921 30.6286 18.0094C31.4168 17.737 32.0528 17.2554 32.4793 16.6192C32.9072 15.9835 33.1241 15.2059 33.1351 14.3538C33.1386 14.0907 32.929 13.8746 32.6668 13.871C32.4046 13.8675 32.1891 14.0779 32.1856 14.341C32.1792 14.8079 32.099 15.2243 31.9553 15.5852C31.8473 15.856 31.7039 16.0961 31.5254 16.3067C31.2574 16.6222 30.9099 16.8742 30.4683 17.0527C30.0272 17.2306 29.4905 17.3326 28.8574 17.3326C28.305 17.3318 27.854 17.1963 27.4697 16.9821C27.1819 16.821 26.9324 16.6134 26.719 16.3801C26.399 16.0309 26.1624 15.6232 26.0103 15.2538C25.9343 15.0693 25.8793 14.8948 25.8443 14.746C25.8092 14.5979 25.7953 14.4731 25.7958 14.4036C25.7958 14.3857 25.7965 14.3718 25.7974 14.3634L25.7984 14.3552L25.7985 14.3547L25.7462 14.344L25.7981 14.3568L25.7985 14.3547L25.7462 14.344L25.7981 14.3568C25.8607 14.1013 25.7051 13.8432 25.4506 13.7803C25.1959 13.7174 24.9387 13.8735 24.876 14.1289Z" fill="#1A1919"/>
</g>
<defs>
<clipPath id="clip0_207:4061">
<rect width="57" height="39.52" fill="white" transform="translate(0.119995 0.23999)"/>
</clipPath>
</defs>
</svg>
